<?xml version="1.0" standalone="no"?>
<!DOCTYPE svg PUBLIC "-//W3C//DTD SVG 20010904//EN"
 "http://www.w3.org/TR/2001/REC-SVG-20010904/DTD/svg10.dtd">
<svg version="1.0" xmlns="http://www.w3.org/2000/svg"
 width="16.000000pt" height="16.000000pt" viewBox="0 0 16.000000 16.000000"
 preserveAspectRatio="xMidYMid meet">
<metadata>
Created by potrace 1.11, written by Peter Selinger 2001-2013
</metadata>
<g transform="translate(0.000000,16.000000) scale(0.001600,-0.001600)"
fill="#000000" stroke="none">
<path d="M0 5000 l0 -5000 5000 0 5000 0 0 5000 0 5000 -5000 0 -5000 0 0
-5000z m6625 3758 c3 -13 293 -1395 645 -3073 404 -1927 650 -3080 669 -3132
16 -44 45 -106 66 -137 50 -76 154 -167 234 -206 71 -35 310 -100 368 -100 19
0 42 -4 52 -10 32 -17 131 -148 130 -172 0 -13 -17 -117 -38 -233 l-37 -210
-1500 -3 -1499 -2 -69 81 -68 80 38 226 c22 124 44 227 49 228 6 2 96 10 202
19 366 31 679 108 704 173 5 13 9 43 9 66 0 33 -268 1447 -286 1510 -5 16 -67
17 -1122 17 l-1117 0 -115 -207 c-134 -242 -440 -847 -494 -978 -57 -135 -106
-291 -106 -335 0 -60 59 -102 215 -154 124 -40 286 -74 419 -86 67 -7 131 -14
143 -16 24 -5 143 -147 143 -171 0 -13 -65 -384 -75 -430 l-5 -23 -1359 0
-1359 0 -66 77 c-36 43 -66 87 -66 97 0 25 70 428 76 438 3 4 23 8 46 8 96 0
355 49 488 92 142 45 319 156 449 282 84 81 194 228 290 390 43 72 323 561
623 1086 523 915 794 1393 2133 3768 l599 1062 293 0 293 0 5 -22z"/>
<path d="M5062 5668 l-600 -1073 830 -3 c457 -1 833 0 836 3 6 6 -451 2145
-459 2145 -4 0 -277 -483 -607 -1072z"/>
</g>
</svg>
