<?xml version="1.0" encoding="iso-8859-1"?>
<!-- Generator: Adobe Illustrator 18.1.1, SVG Export Plug-In . SVG Version: 6.00 Build 0)  -->
<svg version="1.1" id="Layer_1" xmlns="http://www.w3.org/2000/svg" xmlns:xlink="http://www.w3.org/1999/xlink" x="0px" y="0px"
	 viewBox="0 0 271.818 49.284" style="enable-background:new 0 0 271.818 49.284;" xml:space="preserve">
<g>
	<g>
		<path style="fill:#FFFFFF;" d="M47.3,12.459c3.12,0,6.289,0.96,9.121,3.168l-3.552,4.561c-1.488-1.152-3.216-2.016-5.376-2.016
			c-3.408,0-6.192,2.688-6.192,7.584c0,5.137,2.736,7.969,6.192,7.969c2.304,0,3.84-0.816,5.424-2.112l3.84,4.081
			c-2.832,2.496-5.809,3.695-9.457,3.695c-7.489,0-13.106-5.04-13.106-13.633C34.195,17.499,39.763,12.459,47.3,12.459z" />
		<path style="fill:#FFFFFF;" d="M74.516,23.355v-2.256c0-1.92-1.104-3.072-3.552-3.072c-2.448,0-5.04,1.008-8.209,2.544
			l-2.496-5.185c3.457-1.729,7.489-2.928,10.993-2.928c7.393,0,10.273,3.6,10.273,8.881v10.752c0,1.393,0.816,2.017,2.112,2.017
			v4.849c-4.848,0-6.864-0.721-8.305-3.168c-2.16,2.304-4.56,3.6-8.017,3.6c-4.512,0-7.681-2.736-7.681-6.816
			C59.635,26.956,64.963,24.027,74.516,23.355z M69.619,34.348c2.16,0,3.793-0.912,4.896-2.16v-4.944
			c-3.984,0.24-7.872,1.248-7.872,4.512C66.643,33.293,67.844,34.348,69.619,34.348z" />
		<path style="fill:#FFFFFF;" d="M89.107,31.709c2.496,1.392,5.281,2.352,7.969,2.352c2.4,0,3.84-0.768,3.84-2.448
			c0-4.368-13.921-1.488-13.921-11.137c0-5.232,4.753-8.017,10.225-8.017c2.832,0,5.953,0.576,9.601,2.256l-2.496,4.897
			c-2.448-1.2-5.28-1.824-7.008-1.824c-2.112,0-3.456,0.816-3.456,2.4c0,4.273,13.825,1.248,13.825,10.992
			c0,5.329-4.417,8.209-10.513,8.209c-3.937,0-7.489-1.008-10.753-2.783L89.107,31.709z" />
		<path style="fill:#FFFFFF;" d="M112.386,2.81h7.057v6.048h-7.057V2.81z M112.386,13.419h7.057v25.394h-7.057V13.419z" />
		<path style="fill:#FFFFFF;" d="M125.346,13.035h6.624l0.336,2.976c1.872-1.969,4.608-3.601,7.825-3.601
			c5.761,0,8.209,3.553,8.209,9.361v17.041h-7.057V21.58c0-2.305-0.96-3.889-3.36-3.889c-2.16,0-4.032,1.104-5.568,3.024v18.098
			h-7.009V13.035z" />
		<path style="fill:#FFFFFF;" d="M165.858,12.459c7.344,0,12.866,5.232,12.866,13.201c0,8.496-5.186,13.729-12.866,13.729
			c-7.776,0-13.009-5.232-13.009-13.729C152.849,17.691,158.418,12.459,165.858,12.459z M165.858,34.108
			c3.648,0,5.761-3.312,5.761-8.4c0-4.753-2.304-7.921-5.761-7.921c-3.552,0-5.904,3.168-5.904,7.921
			C159.954,30.797,162.066,34.108,165.858,34.108z" />
		<path style="fill:#FFFFFF;" d="M194.753,13.707c6.77,0,9.697,4.608,9.697,10.705c0,0.527-0.048,1.296-0.096,1.775h-18.386v0.096
			c0,6.817,2.929,10.85,8.929,10.85c2.785,0,5.521-1.057,7.393-2.351l1.297,1.871c-2.257,1.584-5.521,2.736-8.785,2.736
			c-7.488,0-11.473-4.943-11.473-13.152C183.329,18.603,188.177,13.707,194.753,13.707z M186.113,24.219h15.746
			c0.096-4.56-1.872-8.401-7.057-8.401C190.241,15.818,186.785,18.987,186.113,24.219z" />
		<path style="fill:#FFFFFF;" d="M208.913,14.283h2.64v16.945c0,3.553,1.345,6,5.425,6c3.456,0,6.24-1.68,8.545-4.464V14.283h2.64
			v24.529h-2.304l-0.336-3.6c-2.209,2.305-5.281,4.176-8.978,4.176c-5.568,0-7.632-3.312-7.632-8.209V14.283z" />
		<path style="fill:#FFFFFF;" d="M233.824,14.283h2.354l0.287,4.272c1.92-3.264,4.561-4.848,7.729-4.848
			c1.152,0,2.209,0.145,2.977,0.384l-0.527,2.544c-0.769-0.24-1.729-0.432-2.736-0.432c-2.977,0-5.473,1.729-7.441,5.137v17.473
			h-2.641V14.283z" />
		<path style="fill:#FFFFFF;" d="M258.784,13.707c6.625,0,11.473,4.944,11.473,12.529c0,8.064-4.656,13.152-11.473,13.152
			c-6.912,0-11.521-5.088-11.521-13.152C247.263,18.651,252.159,13.707,258.784,13.707z M258.784,37.228
			c5.281,0,8.736-4.32,8.736-10.992c0-6.24-3.648-10.321-8.736-10.321c-5.137,0-8.832,4.081-8.832,10.321
			C249.952,32.908,253.407,37.228,258.784,37.228z" />
	</g>
	<polygon style="fill:#FFFFFF;" points="23.329,29.542 21.029,17.322 31.399,9.321 19.998,9.718 18.585,0.629 12.996,10.539
		1.646,11.66 9.026,17.928 2.631,30.751 13.835,21.852 	" />
	<polygon style="fill:#FFFFFF;" points="19.957,40.642 16.358,35.998 19.858,30.3 14.813,32.711 11.956,28.976 11.205,34.327
		6.16,36.736 10.992,38.48 10.073,45.483 13.935,39.3 	" />
	<polygon style="fill:#FFFFFF;" points="28.711,48.07 28.395,44.361 32.022,42.32 28.279,41.97 28.002,39.056 26.003,41.683
		22.404,41.593 24.514,43.885 21.889,47.34 25.791,45.552 	" />
</g>
</svg>